# xmcd CD database file
#
# Track frame offsets:
#	150
#	15767
#	30481
#	47204
#	61426
#	76297
#	89821
#	104759
#	118493
#	132694
#	145050
#	157270
#	171440
#	185300
#	198692
#	211957
#	225253
#	238804
#	251844
#	265141
#	278483
#	293345
#
# Disc length: 4100 seconds
#
# Revision: 0
# Processed by: cddbd v1.5.1PL0 Copyright (c) Steve Scherf et al.
# Submitted via: CDex 1.51
#
DISCID=49100216
DTITLE=Duke Ellington - Classic Jazz Archive cd 2
DYEAR=1900
DGENRE=Jazz
TTITLE0=Echoes Of The Jungle
TTITLE1=Slippery Horn
TTITLE2=Sophuisticated Lady
TTITLE3=Harlem Speaks
TTITLE4=Live And Love Tonight
TTITLE5=Merry-Go-Round
TTITLE6=In A Sentimental Mood
TTITLE7=Echoes Of Harlem (Cootie's Concerto)
TTITLE8=Clarinet Lament (Barney's Concerto)
TTITLE9=Caravan
TTITLE10=a1-Diminuendo In Blue
TTITLE11=a2-Crescendo in blue
TTITLE12=I Let A Song Go Out Of My Heart
TTITLE13=Prelude To A Kiss
TTITLE14=Weely
TTITLE15=Country Gal
TTITLE16=Plucked Again
TTITLE17=Blues
TTITLE18=Solitude
TTITLE19=Conga Brava
TTITLE20=Don't Get Around Much Any More (Never No Lament)
TTITLE21=Cotton Tail (Shuckin' And Stiffin')
EXTD=
EXTT0=
EXTT1=
EXTT2=
EXTT3=
EXTT4=
EXTT5=
EXTT6=
EXTT7=
EXTT8=
EXTT9=
EXTT10=
EXTT11=
EXTT12=
EXTT13=
EXTT14=
EXTT15=
EXTT16=
EXTT17=
EXTT18=
EXTT19=
EXTT20=
EXTT21=
PLAYORDER=
